<svg id="couch" xmlns="http://www.w3.org/2000/svg" viewBox="0 0 1366 768"><style>.st0{fill:#5d5d5d}</style><path class="st0" d="M783 192.7s5.9 6.2 9.6 7.9 16.7 7.5 20.1 6.6 11.1 0 8 1.7-9.4.8-11.5 1c-2.1.2-14.2 3.5-20.1-2.5-5.9-6-14.6-17.8-6.1-14.7zm-193.9 42.2l-2.4 1.5c-1.9 1.1 12.2-1.3 21.2-3.7l-13.2 1.7-5.6.5zm130.3-14.1c1.1-.1 2.2-.3 3.3-.6 1.1-.4 2.2-.8 3.4-1.2l-9.3 1.1c.7.5 1.6.9 2.6.7zm-193.9 23.5c1.6-1.1 2.9-2.2 3.8-3.8l-6.1.6c.7 1 1.5 2.1 2.3 3.2zM673 224.6c-.7 0-4.2.4-8.3.9 0 .6.5 1.1 1.6 1.7 1.2.7 28.1-1.9 31.2-3.6 3.5-1.9 6.9-2.1 10.3.3.3.2.7.4 1 .6 1.4.8 2.2.7 3.2-.6.5-.6.9-1.3 1.3-1.9l1.1-1.7-26.7 3.1-14.7 1.2zm41.6-4.5c-.1.1-.1.2-.2.3l.5-.1 1.7-.2c-.1-.1-.2-.1-.3-.2-.8-.7-1.1-.7-1.7.2zm14.8-38.7c-2.1-.7-4.1-.2-5.4 1.7-.8 1.3-1.5 2.6-2.2 4-1.6 3.2-4 5.4-7.5 6.2-2.7.7-4.7 2.2-6 4.6-1.2 2.2-2.5 4.5-3.6 6.7-.2.4-.3 1.3 0 1.5.4.3 1.1.3 1.6.1 1.1-.3 1.7-1.2 2.2-2.1.5-1.1 1-2.2 1.6-3.3 1.4-2.6 3.6-4.1 6.4-4.7.8-.2 1.7-.3 2.2.5.5.8-.2 1.5-.7 2.1-2.3 2.6-3.9 5.6-5 8.9-.3 1-.5 2-.7 2.8.1.5 0 .7.1.9.2.4.4.7.6 1.1.2-.3.6-.6.6-1 .5-2.6 2.1-4.3 4.1-5.8 1.4-1 2.7-2.1 3.4-3.7.9-2.1 2.2-3.9 3.9-5.4 1.8-1.6 2.4-3.6 2-6-.4-1.9 0-3.6 1.4-5.1l1.8-2.1c.7-.8.4-1.4-.8-1.9z"/><path class="st0" d="M824.9 202.4c-8.6.3-26.2-11.2-26.2-11.2s-18.6-12.6-27.1-12.4c-3.8.1-6.3-1.8-8-3.8-.1-.3-.2-.6-.4-.9-.7-1.5-1.4-2.8-2.3-4.1 0-.1-.1-.2-.1-.2v.1c-1.6-2.5-3.6-4.8-6.2-6.5-3.2-2.2-5.1-5.1-6.1-8.8-1-4.2-3.5-7.5-7.1-10-1.8-1.3-3-2.7-2.8-5.1 0-.2 0-.5-.1-.7-.4-4.3-3.3-6.5-7.6-5.6-.3.1-.6.1-.9.2-6.5 1.9-12.1 5.3-16.5 10.5-2.8 3.3-5.3 6.9-7.9 10.5-1.5 2.2-3.5 3.6-6 4.5-11.2 4-22.5 8.1-33.7 12.1-.6.2-1.1.3-1.8.5.1-.5.1-.8.1-1.1.1-1.6.3-3.2.2-4.7-.3-3.6-3.3-5.8-6.8-4.9-1.4.4-2.8 1.1-4.1 1.9-4 2.4-7.4 5.5-10.6 8.8a7.4 7.4 0 0 1-4.8 2.4 8.9 8.9 0 0 0-5.9 2.8c-.5.5-1.1 1-1.8 1.4-5.3 3-10.7 5.5-17 5.5-2.9 0-5.8.7-8.2 2.6-2.5 2-5.3 3.2-8.3 4.1-3.7 1.1-7.2 2.7-9.4 6.1-.1.2-.5.3-.8.3-2.3-.3-4.6-.7-7-.1-.1-.9 0-1.6-.2-2.3-.3-1.3-.4-2.9-1.2-3.9-1.1-1.5-1.2-2.9-1-4.6 0-.3.1-.5.1-.8.4-4.1 0-8.1-2.2-11.8-.2-.3-.3-.7-.3-1.1-.4-3.1-3.1-5.2-6.2-4.4-1.1.3-2.4.8-3.3 1.5-2.3 1.9-4.4 4-6.6 6-.3.3-.7.5-1.1.5-1.7.1-3.3.6-4.5 1.9-.9.9-1.7 1.9-2.5 2.9-1.7 2.2-3.3 4.4-4.9 6.5-.4.6-1 .9-1.7.9-2.8-.1-4.8 1.2-6.3 3.4-1.8 2.6-3.6 5.1-5.4 7.8-.7 1-1.5 1.7-2.8 1.7-2.2.1-3.9 1.1-5.2 2.7-.6.6-1.1 1.3-1.6 2L505.9 229c-.3.5-.3.8-.1 1.3-8.2 7.1-12.4 13.7-12.4 13.7l29.6-2.8c-.1-.2-.2-.3-.3-.5-2.2-3.4-4.2-6.9-6.4-10.3-.3-.4-.4-.8-.1-1.3 4.6-6.3 9.2-12.7 13.8-19 .5-.7 1.1-1 1.9-1.1 3.1-.2 5.3-1.9 7-4.4 1.6-2.4 3.3-4.8 5-7.2.5-.7 1-1.1 1.9-1.1 2.3-.2 4.3-1.2 5.8-2.9 2-2.5 3.9-5 5.8-7.6.7-1 1.5-1.5 2.8-1.4 1.4.1 2.6-.6 3.6-1.7 1.3-1.4 2.6-2.7 3.9-4.1.1-.1.3-.2.7-.5.3 1.2.6 2.1.7 3.2.1 1.1-.1 2.3-.1 3.4 0 .2-.1.6-.3.7-3.3 3.3-5.7 7.3-8.2 11.2-5.1 7.9-10.1 15.9-15.1 23.9-1.7 2.7-3.8 5.1-6.5 6.9-3.7 2.4-5.8 6-7.9 9.7-.5.8-1 1.7-1.3 2.6-.1.3-.3.6-.4.9l59.8-5.6c3.8-2.3 7.7-4.7 11.4-7.1 7.5-5 14.9-10.1 21.7-16 5.7-5 11.2-10.3 16.8-15.4l12.3-11.4c.4-.4.8-.7 1.3-1 .7-.4 1.2-.3 1.2.5.1 1.7.1 3.4.1 5.2 0 2.1-1.2 3.3-2.8 4.5-4.3 3.2-8.5 6.6-12.8 9.9-.5.4-1 .6-1.4 1 .1.2.3.4.4.6l1.5-.3c4-1 7.5-2.9 10.7-5.5.5-.4 1-.8 1.6-1.1.2-.1.4-.1.7-.1 0 .2.1.5.1.7-.5 1-.8 2-1.5 2.9-2.4 3.1-4.7 6.1-7.2 9.1-3.5 4.1-7.1 8.2-10.6 12.2-.1.1-.2.2-.2.3-2.2 2.8-5.1 3.7-8.6 3-3.4-.7-6.4.2-8.6 3.1-.6.8-3.4 1.8-7 2.7l15.2-2 28.1-3.4s7.4-.9 13.6-1.7c0-.4.2-1 .6-1.7 1.3-2.4 2.7-4.6 4.1-7 3-5.3 4.4-11.2 5.4-17.2.4-2.5.7-5 1.1-7.5.2-1.4.9-2.5 2.2-3.3 1.9-1.2 3.8-2.4 5.8-3.6 6.2-3.6 10.6-8.9 13.9-15.1.7-1.4 1.7-2.2 3.2-2.7 3.1-1 6.1-2.2 8.4-4.5 1.6-1.6 3-3.4 4.4-5.2 2.3-3 4.5-6.1 6.9-8.9a25 25 0 0 1 8.8-6.3c.3-.1.6-.2.8-.3.3 1 .5 2 .8 3 .8 2.3 2.5 4 4.4 5.3 2.7 1.9 4.6 4.3 5.3 7.5 1.2 5.1 4.3 8.9 8.5 11.8 2.7 1.9 4.7 4.3 5.8 7.5.5 1.4 1.3 2.8 2 4.3-.4.1-.6.1-.9.1-2.4.1-4 1.3-5.3 3.3-1.9 2.9-3.5 5.9-3.8 9.4-.1 1-.1 1.9-.3 2.9-.2 1.8-1.1 2.4-2.9 2.1l-4.8-.9c-1.4-.2-2.7.1-3.7 1.1-.9.8-.7 1.7.5 1.9 1.2.3 2.5.4 3.8.6 3.1.4 4.2 1.6 4.1 4.7 0 2.1-.2 4.2-.4 6.3-.2 1.8-.8 2.3-2.6 2.1-2.7-.3-5.3.1-7.8 1.1-2.4.9-4.7 1.8-7.1 2.6l11.3-1.3 21.3-3.4-3 2.3 25-2 31.5-5 23.6-3.6c-.3-.1-4.6-4-11.1-3.7zM573 209.6c-3.2 5.2-6.4 10.5-10.8 14.8-2.8 2.8-6.3 4.8-9.7 6.7-3.4 1.9-6.8 3.7-10.2 5.5-.7.4-1.5.6-1.9.7-1.3.1-1.6-.3-1.1-1.1.5-.9 1.1-1.9 1.9-2.7 3.8-4.2 7.1-8.7 9.7-13.7.4-.8 1.3-1.5 2.1-1.9 4.1-2.2 8.3-4.4 12.5-6.5 2.2-1.1 4.4-2.1 6.6-3.1.4-.2.9 0 1.3-.1-.3.5-.2 1-.4 1.4zm73.5-26.3c-1.6 2-3.2 4-5 5.7-2.8 2.7-5.8 5.2-8.8 7.8-.4.3-.8.5-1.2.8-.1 0-.2-.1-.3-.1 0-.3.1-.7.2-1 .3-1 .6-1.9.8-2.9.1-.3-.1-1-.4-1.1-.3-.1-.9 0-1.2.2-.5.4-1 .9-1.3 1.4-.7 1.1-1.4 2.2-1.9 3.4-1.6 3.8-4 6.8-7.1 9.4-9 7.8-18.3 15.4-28.3 22-2.9 1.9-5.8 3.7-9 4.9-1 .4-2.1.5-3.2.6-1.8.1-3.6-1.9-2-3.8 1.8-2.1 3.6-4.3 5.7-6.1 8.2-7.3 16.5-14.4 24.8-21.6 4.5-3.9 9.1-7.7 13.7-11.5.4-.4 1-.6 1.5-.8 4.3-1.5 8.4-3.4 12.2-5.8.5-.3 1-.7 1.4-1.1.9-1.1 2-1.5 3.4-1.7 3-.4 5.6-1.7 7.8-3.8 0 1.9-.6 3.7-1.8 5.1zm-89.7 78.1l9.3-.9V287l-4.5 3 4.5 2.2v31.9l-9.3.9-7.8.8-9.3.9v-63.5l9.3-.9 7.8-.9zm0 26.6v-17.3l-7.8.8v12.8l7.8 3.7zm0 11.9l2.9-.3-.2-.1-2.7-1.3-7.8-3.7v21.9l7.8-.8v-15.7zm44.7-33.8v54.3l-9.3.9-7.8.8-9.3.9v-63.6l9.3-.9 7.8-.8 9.3-.9v9.3zm-9.3 46v-45l-7.8.8v45l7.8-.8zm44.7 4.9l-9.3.9-7.8.8-9.3.9v-63.7l9.3-.9v54.4l7.8-.8v-54.4l9.3-.9V317zm35.4-20.2v16.7l-9.3.9-7.8.8-9.3.9v-63.7l9.3-.9v54.4l7.8-.8v-12.6l9.3 4.3zm26.9-49.9l8.5 4.1v53.9l-8.5 5.8h-.1l-8.5.8-4.2.4-5.1.5v-63.9l5.1-.5 4.2-.4 8.6-.7zm-.9 41.1v-30l-2.9-1.4-4.9.5v45.1l4.9-.5 2.9-1.9V288zm45.5-45.6v19.8l-9.3.9v-10.4l-7.8.8v13l9.5 4.5v10.2l-9.5-4.6v22l7.8-.8v-12.6l9.3 4.4v16.7l-9.3.9-7.8.8-9.3.9v-35.4l2.5-.2-2.5-1.1-2.4-1.2v-10.2l2.4 1.1V245l9.3-.9 7.8-.8 9.3-.9zm26-2.7l9.3-.9v26.7l-4.5 3 4.5 2.2v32.2l-9.3.9v-25.3l2.9-.3-.2-.1-2.7-1.3-7.8-3.7v31.4l-9.3.9v-64l9.3-.9 7.8-.8zm0 26.8v-17.4l-7.8.8v12.9l7.8 3.7zM548.2 459.2v-7.5l-5.5.6v32.1l5.5-.5v-9.7l6.6 3.2v7.2-1.4 6.7l-6.6.6-5.5.5-6.6.6v-45.2l6.6-.7 5.5-.6 6.6-.7v14.2l-6.6.6zm31.9-10.7v39l-6.6.6-5.5.5-6.6.6v-45.6l6.6-.7 5.5-.6 6.6-.7v6.9zm-6.7 32.9v-32.3l-5.5.6V482l5.5-.6zm31.9 3.7l-6.6.6-5.5.5-6.6.6V441l6.6-.7v39.2l5.5-.5v-39.2l6.6-.7v46zm18.5-33.6v-7.6l-5.5.6v32.6l5.5-.5v-9.9l6.6 3.3v7.4-1.4 6.8l-6.6.6-5.5.5-6.6.6v-46.2l6.6-.7 5.5-.6 6.6-.7v14.4l-6.6.8zm31.9-17.7v46.6l-6.7.6v-18.3l2-.2h-.1l-1.9-.9-5.5-2.7v22.8l-6.6.6v-46.6l6.6-.7v16.2l5.5 2.7v-19.5l6.7-.6zm33.7 11v-7.7l-5.5.6v33.1l5.5-.5v-10l6.6 3.3v7.5-1.4 6.9l-6.6.6-5.5.5-6.6.6v-46.9l6.6-.7 5.5-.6 6.6-.7V444l-6.6.8zm25.2-17.2l6.6-.7v19.6l-3.2 2.2 3.2 1.6v23.8l-6.6.6v-18.6l2-.2h-.1l-1.9-1-5.5-2.8v23.1l-6.6.6v-47.1l6.6-.7 5.5-.4zm0 19.8v-12.8l-5.5.6v9.5l5.5 2.7zm25.2-22.4l6.6-.7v47.6l-6.6.6v-18.7l2-.2h-.1l-1.9-1-5.5-2.8v23.3l-6.6.6v-47.3l6.6-.7 5.5-.7zm0 19.8v-12.9l-5.5.6v9.6l5.5 2.7zm31.8-23.2v14.9l-6.6.7v-7.9l-5.5.6v9.6l12.2 6.2v23.6l-6.7.7-5.5.5-6.6.6v-18.7l6.6-.7v11.7l5.5-.5v-11.8l2-.2h-.1l-1.9-1-12.2-6.2v-20.2l6.6-.7 5.5-.6 6.7-.6zm25.2-2.6v48l-6.6.6v-18.9l2-.2h-.1l-1.9-1-5.5-2.8v23.5l-6.6.6V421l6.6-.7V437l5.5 2.8v-20.1l6.6-.7z"/><path class="st0" d="M597.1 135.4s1.2 1.6 2.3.7c1.1-.8-.5-4 .6-5.1 1.1-1.2 3.6-.7 4.3 2.7 0 0 .7.5 1.5-.8.8-1.2 9.6-4.6 5.3-29.3 0 0 .6-.8 1.2.7.6 1.4 2.1 9.4 2 10.9 0 0 1-8.4 2.3-9.4 0 0 1.8 3.1 0 10.4 0 0 1.5-4 1.8-5.7.3-1.7 1.2-1.7 1.6-.7.4.9-2 9.4-2.8 10.5 0 0 2.2-2 3.6-4.6 1.4-2.5 2.2-1.2 1.8.2-.4 1.3-4.1 7-4.1 7s5.1-5 5.6-5c.5.1-1.9 5.3-5.1 8.3 0 0 4.5-2.8 5.7-3.8 1.2-1 1.8-.3 1.4.4-.4.8-5 5.4-6.8 6.6 0 0 3.9-1.4 4.7-1.7.9-.3 2.4-.5 1.5 1-.9 1.5-3.9 2.9-3.9 2.9s4.6-.6 5-.2c.4.4-2.7 3-4.7 2.9 0 0 1.2.8.6 1.8s-2.7.9-2.7.9 0 .6-.8.4c0 0 .6.8-.1 1.7-.6.8-2.5 1-3.4.7 0 0 1 .4 1 1.2-.1.8-1.9.9-1.9.9s.1.5-.3.8c-.4.3-2.1 0-2.1 0s.2 1.7-1.5 1.6c0 0 .7 2 .7 3.4 0 0 7.9-.3 9 0 1.1.3 1.2 1.6-.4 2.1 0 0 1.9 1.8-.9 3.3 0 0-.5 2.6-3.1 2.3 0 0 1.6 3-1.9 2.3 0 0 .1 1.4-1.4 1.5 0 0-.1.7-1.3.7 0 0-2.2 2.6-4 .4 0 0-2.3 1.4-3.4-.5 0 0-1.8.6-2.5-1.2 0 0-3.1 1.3-2.5-1.2 0 0-2.4-.7-2.4-1.9s4-2.7 4-2.7-.8-2.1 1.8-2.6c0 0 .2-2-.4-2.6-.7-.5-1.3-1.6-1.7-2.6 0 0-1.2 1.5-2.2 1.4-1-.1-1-1.4-1-1.4s-1.6 1.7-2.4 1.6c-.8-.1-.6-1-.6-1s-2.1 1.8-2.7 1.7c-.7-.1-1-.6-.8-1.5 0 0-2.5 1.2-3.3.6-.8-.6.5-1.7.5-1.7s-4.6 1.2-4.4-.4c0 0-5.9 0-1.7-2.4 0 0-8.3.6-3.3-1.8 0 0-4.2-.7-5.9-1.7-1.7-1-.5-1.8.9-1.9 0 0-4.9-1.7-5.6-3.4-.7-1.7 1.9-1.1 1.9-1.1s-4.5-2-4.8-3.9c-.3-1.9 4 .3 4 .3s-5.7-4.3-2.5-4.5c0 0-2.6-2.3-2.2-3.7.4-1.4 4.5 2.4 4.5 2.4s-3.2-4-3.1-4.6c.1-.7 2.8 1.7 3.3 2.2.5.5 10.4 6.8 14.3 7.6 3.9.7 7.3-.5 9.1 1.9 1.1 2.3 3.2 4.7 4.8 5.7zm110.6 251.4c-5.5-2.1-10.9-4.3-16.3-6.6l.1-.1c2.3-6.4 2.3-13 0-19.4v-.1c4.2-1.7 8.3-3.4 12.5-5.1 1.8-.7 4.5-1.1 5.2-2.5.8-1.5-1.3-3.5-2.1-5.3v-.2c-.6-.9-1.2-1.8-1.8-2.6-13.6-20.4-41.1-26.4-62-13.7-6.7 4.1-11.9 9.7-16.1 16.3-3.9 7.6-6.2 15.5-6 24.2.2 7.7 2.5 14.8 6 21.6l1.9 2.8a45.73 45.73 0 0 0 61.2 13.8c7-4.1 12.4-9.8 16.7-16.7.6-1.2 1.1-2.5 1.8-3.7.7-1.3.6-2.1-1.1-2.7zm-60.1-12.7c-1.9-10.7 5-21.1 15.4-23.1 1.2-.2 2.5-.4 3.9-.4 6.6 0 14.3 3.1 18.5 12.3 1.8 5 1.8 9.9 0 14.8-3.3 6.9-8.3 10.9-15.4 12.1-10.3 1.9-20.5-5.4-22.4-15.7zm59.7 181.6h-1.1v-3.1c0-5.2-4.2-9.4-9.4-9.4h-68.9c-5.2 0-9.4 4.2-9.4 9.4v3.1h-1.1c-3.4 0-6.1 2.7-6.1 6.1v28.4c0 3.4 2.7 6.1 6.1 6.1h90.1c3.4 0 6.1-2.7 6.1-6.1v-28.4c-.2-3.4-3-6.1-6.3-6.1zm-84.4 19v15.5c0 .6-.5 1.1-1.1 1.1h-4.6c-.6 0-1.1-.5-1.1-1.1v-28.4c0-.6.5-1.1 1.1-1.1h4.6c.6 0 1.1.5 1.1 1.1v12.9zm4.9 16.6c.1-.3.1-.7.1-1.1v-10.4h68.7v10.4c0 .4 0 .7.1 1.1h-68.9zm73.3-35.4c-2.6.7-4.5 3.1-4.5 5.9v12.9h-68.7v-12.9c0-2.8-1.9-5.2-4.5-5.9v-3.3c0-2.4 2-4.4 4.4-4.4h68.9c2.4 0 4.4 2 4.4 4.4v3.3zm7.2 34.3c0 .6-.5 1.1-1.1 1.1h-4.6c-.6 0-1.1-.5-1.1-1.1v-28.4c0-.6.5-1.1 1.1-1.1h4.6c.6 0 1.1.5 1.1 1.1v28.4z"/><path class="st0" d="M638.8 554.9c-2 0-3.6 1.6-3.6 3.6s1.6 3.6 3.6 3.6 3.6-1.6 3.6-3.6c0-1.9-1.6-3.6-3.6-3.6z"/><circle class="st0" cx="654.1" cy="558.6" r="3.6"/><path class="st0" d="M669.4 554.9c-2 0-3.6 1.6-3.6 3.6s1.6 3.6 3.6 3.6 3.6-1.6 3.6-3.6c0-1.9-1.6-3.6-3.6-3.6zm-22.9 7.7c-2 0-3.6 1.6-3.6 3.6s1.6 3.6 3.6 3.6 3.6-1.6 3.6-3.6c0-1.9-1.6-3.6-3.6-3.6zm15.3 0c-2 0-3.6 1.6-3.6 3.6s1.6 3.6 3.6 3.6 3.6-1.6 3.6-3.6c0-1.9-1.6-3.6-3.6-3.6zm15.3 0c-2 0-3.6 1.6-3.6 3.6s1.6 3.6 3.6 3.6 3.6-1.6 3.6-3.6c0-1.9-1.6-3.6-3.6-3.6z"/><circle class="st0" cx="684.7" cy="558.6" r="3.6"/><path class="st0" d="M512.1 146.2c1.2-.2 2.5-2.7 1.5-3s-2.1 1.9-2.1 1.9c-.6 0-1.5.6-1.5.6v2.3c.4.1 2.1-1.8 2.1-1.8zm311.2-7.1c1.1-.1 2.1-2.4 1.3-2.6-.9-.2-1.8 1.7-1.8 1.7-.5 0-1.3.5-1.3.5v2c.3 0 1.8-1.6 1.8-1.6z"/><path class="st0" d="M850.9 330.5l-16.1-65 16.4-65.7-29 3.2v-3.5c.1 0 .2-.1.2-.1s-.2.8.8 1c1 .2 1.4-1 1.4-1 .6.6 1.9.4 1.8-1s-1-1.5-2.3-1.4c-.6 0-1.4-.5-2-1.1v-2.5c1 .6 2.2.1 2.2.1 1 2.3 2 .1 2 .1 4.4.5 1.8-2.6-.7-2.2-1.4.2-2.7-.8-3.5-1.9v-3.4c.9.3 1.9-.3 1.9-.3 1.4 1.7 2-.3 2-.3.6 1.1 1.7.5 1.7.5 2 .9 1.9-3.5-.8-2.7-1.7.5-3.6-.6-4.8-1.5v-3.4c.9.8 2-.2 2-.2 1.3 2.6 2.6.6 2.6.6.8 1.1 2.1.7 2.4-.9s-.7-1.6-3.2-1.1c-1.5.3-3-1.5-3.9-3v-3.5c.7.3 1.4-.2 1.4-.2s-.2 1.5.8 2.1c1 .5 1.5-1.2 1.5-1.2 1.2 3.1 2.6.5 2.6.5s.9.1 1-1.4-1.8-1.5-4-1c-1.4.3-2.7-1.3-3.4-2.4 0-2-.1-3.9-.1-5.8.6.5 1.3.3 1.3.3.8 1.8 2.3.3 2.3.3s1.5 1.4 2.5-.2-1.2-1.9-3-1.3c-1.3.4-2.5-.9-3.2-1.7 0-1.3 0-2.6-.1-3.8 1.5 2.4 2.5-.5 2.5-.5 1.9 1.8 3.2-3.4 1.3-1.9-1.5 1.2-3.1.2-3.9-.3 0-1.2 0-2.3-.1-3.4.5.2 1.1.2 1.1.2.9 1 1.7 0 1.7 0 1.8-.2 1.9-2.4.7-1.6-1 .7-2.8.1-3.5-.1v-1.2c1.2-.1 1.9-1.6 1.9-1.6 1.1.1 2.7-1.7 2-2.1s-2 1.3-2 1.3c-1-.3-1.7.4-1.9.6-.2-5.8-.3-9.4-.5-9.4-1-.2-.3 2.2-.3 5.3v.7c-.3-.1-.6-.3-.9-.3 0 0-1-1.9-1.8-1.7-.9.2.2 2.5 1.3 2.6 0 0 .9 1 1.5 1.4v2.8c-.3-.2-.9-.5-1.5-.3 0 0-1.3-1.7-2-1.3-.7.4.9 2.1 2 2.1 0 0 .6 1.3 1.6 1.6v1.4c-.8.2-2.4.6-3.2 0-1.2-.8-1.1 1.4.7 1.6 0 0 .8 1 1.7 0 0 0 .4 0 .9-.1v3.5c-.8.5-2.4 1.3-3.8.2-1.9-1.5-.6 3.6 1.3 1.9 0 0 1 2.9 2.4.6v3.7c-.7.8-2 2.1-3.3 1.8-1.8-.6-4-.3-3 1.3s2.5.2 2.5.2 1.5 1.5 2.3-.3c0 0 .8.3 1.4-.3v5.5c-.7 1.2-2 3.1-3.6 2.8-2.2-.5-4.1-.5-4 1 .1 1.5 1 1.4 1 1.4s1.3 2.6 2.6-.5c0 0 .5 1.7 1.5 1.2s.8-2.1.8-2.1.9.6 1.7.1v3.1c-.9 1.6-2.5 3.9-4.2 3.6-2.5-.6-3.6-.5-3.2 1.1.4 1.5 1.6 2 2.4.9 0 0 1.4 2.1 2.6-.6 0 0 1.3 1.4 2.3-.2v3.5c-1.1.9-3.3 2.3-5.2 1.8-2.7-.8-2.8 3.6-.8 2.7 0 0 1.1.6 1.7-.5 0 0 .6 2 2 .3 0 0 1.5.8 2.4 0v3.1c-.7.9-1.8 2.1-3.1 2.4.1-.8-.2-1.3-.6-.7-.8 1.3-6.2 1.2-7.5 2.3-1.2 1-4.9 1-5.4 1v-1.4c.7.9 2.4 0 2.4 0 1.4 1.1 3.5-2.1 2.4-1.6-1 .5-4.3-.4-4.8-.5v-1.1c.9.6 2.4-.1 2.4-.1.9.7 2.5-.5 2.5-.5.7 1.4 2 .6 2 .6 2.5.9 3.8-2.2 2.3-1.5-1.3.5-3.2-.1-3.8-.3.9.3 1.8-.6 1.8-.6 1.5-.6 1-3.1.8-2.6-.3.5-1.5 1.2-3.6 2.1-1.7.7-3.6.5-4.3.5v-1.3c.8.7 1.9-.6 1.9-.6s1.4.1 2-.9c.6-1.1.1-1.5-.9-.8-.8.6-2.3.6-3 .5v-2.6c.9.4 2-.4 2-.4 1.4 1.6 2.8-.5 2.8-.5 2.2.4 3-1.8 1.8-2.1-1.3-.3-3.3.6-4.1 1.1-.6.3-1.9-.2-2.5-.5v-2.7c.6.4 2-.1 2-.1.3 1.4 1.5.1 1.5.1s2 .8 2.2-.2c.1-.6-1.2-1.4-1.2-1.4 2.7.6 2.6-2.6 1.5-2-1.1.5-3.1 1.1-3.6 1.7-.4.5-2 .1-2.6-.1v-2.9c.4.1 1.1-.2 1.1-.2 1.9 1.2 2.2-1.3 2.2-1.3 1.5-.7 1.1-2.9.8-2.2-.3.7-2.1 1.4-2.5 2-.2.4-1.2.2-1.6.1v-2.1c.6.3 1.3-.5 1.3-.5.5.2 1.4-.5 1-1.1-.3-.6-1.2-.5-1.5 0-.2.3-.6.3-.9.3v-2.3c.2-.2.7-.3 1.2 0 .9.5 1.4-.6 1.4-.6.8.4 1.8-.7 1.5-1.4-.3-.7-1.2-.7-1.5-.3-.3.5-.9.9-1.5 1.2-.4.2-.9.2-1.2.1V164c.3-.1.7-.3 1.1-.4.9-.2 1.5-.9 1.2-1.4-.2-.6-1.3-.3-1.4.2-.1.3-.5.4-.9.4v-1.3c.2 0 .5-.1.8-.1.7-.2 1.2-1.1 1.2-1.1s1.6-1 1-1.4c-.7-.4-1.5.6-1.6.8-.1.2-.8.1-1.3.1v-2c1.9-.1 3.5-1.9 4.4-4.3 1.3-3.4-3.3-.9-5.6.4s-4-2.2-6.2-.9c-1.3.8-3.5.1-4.9-.5v-3.4c.7.1 1.3-.1 1.3-.1 1.6 2.7 4 0 4 0 2.7 3.3 5.7-.7 6-1.9.3-1.1-.9-.2-3.2.2-2.3.5-2.9-.5-2.9-.5-1-2.3-3.8-2.6-5.3-2.6v-2.3c1.9.8 4.1-1.4 4.1-1.4 3.3.7 4.5-3.5 3.6-4.1-.9-.6-2.7.8-4.5 2.4-1 .9-2.3.5-3.3 0v-4.3c1.1.1 2.1-1.5 2.1-1.5 2.3 1.7 3.2-1.4 3.2-1.4 2.8 1.1 3.8-1.6 3.8-1.6 2.6-2.1.3-6.1-.2-3.8s-2.4 2.7-5.7 4c-1.4.6-2.4.6-3.1.5V128c1.9.8 2.6-2 2.6-2 1.5 1.1 4.3-.6 3.5-2.4-.9-1.9-2.6-.2-3.9.9-.6.5-1.5.5-2.2.4V122c1-.3 2-1.2 2-1.2 1.6.5 3.9-1 2.6-2.4-1.4-1.4-2.5.9-2.5.9-.5-.3-1.4-.2-2-.1v-8.1s-.7 0-2.1 1.4v6.7c-.7-.2-1.8-.4-2.4 0 0 0-1.1-2.3-2.5-.9s1 2.9 2.6 2.4c0 0 1.2 1.1 2.3 1.2v2.7c-.8.2-1.8.2-2.5-.4-1.3-1.1-3.1-2.7-3.9-.9-.9 1.9 2 3.5 3.5 2.4 0 0 .8 3.1 3 1.8v2.9c-.7.2-1.8.2-3.5-.5-3.3-1.3-5.2-1.7-5.7-4s-2.8 1.7-.2 3.8c0 0 1 2.7 3.8 1.6 0 0 .8 3.1 3.2 1.4 0 0 1.2 1.9 2.5 1.5v4.2c-.9.6-2.4 1.3-3.6.2-1.8-1.6-3.6-2.9-4.5-2.4-.9.6.3 4.8 3.6 4.1 0 0 2.5 2.5 4.5 1.3v2.5c-1.5-.1-4.6.1-5.7 2.6 0 0-.6 1-2.9.5s-3.4-1.4-3.2-.2 3.3 5.1 6 1.9c0 0 2.5 2.6 4 0 0 0 .9.3 1.7.1v3.3c-1.4.7-3.8 1.6-5.3.7-2.2-1.3-3.9 2.2-6.2.9s-6.8-3.8-5.6-.4c1.3 3.4 4.2 5.7 6.9 3.3 0 0 3.4 3.4 5.1.1 0 0 2.9 1.1 4.9-.3v4.3c-.8.7-2 1.3-3.7.6-3-1.3-5.3-.9-3.2 1.5 2.1 2.4 4.8.9 4.8.9s.8 1.8 2.1 1.3c-.1 15.5-.2 29.3-.2 32.7v4.8c-.5-.3-1.1-.1-1.1-.1-.1-2-2-.5-2.7.4-.7.9-3 .3-4.4-.9l-.5-.5v-2.1c.7-.1 1.3-.6 1.3-.6 1 2.3 2.3 0 2.3 0 1.7 1.7 1.9-.6 1.9-.6 3.9-1.9.5-3.1 0-1.7-.5 1.4-3.8 1.1-4.7 0-.2-.3-.5-.6-.9-1v-1.7c.3-.1.5-.2.5-.2.7 1.5 2.4.1 2.4.1 1.7 1.2 2.2-.7 2.2-.7 1.5 0 1.7-2 1.1-2.3-.6-.3-2.4.5-4.1 1.4-.6.4-1.5-.2-2.1-.7v-2c.6-.1 1.1-.4 1.1-.4 1.1 1 2-.5 2-.5 2.2-.1 3.3-4.3 1.2-2.3-1.2 1.1-3.2.8-4.3.6v-2.1c.2-.2.4-.5.4-.5 1.1 1.6 2 .2 2 .2 1 .5 3-2 1.2-1.8-1.1.1-2.6.1-3.6.1v-2.1c.5-.3.8-.8.8-.8 1.6.5 2.6-1.6 1.8-1.4-.5.1-1.8 0-2.7-.2v-1.5c1.5 0 2.7-2 1.9-1.6-.4.2-1.3-.2-2-.4v-2.2c.9-.3 1.8-1.6 1.2-1.3-.3.2-.8.1-1.2 0 0-3.5-.1-5.7-.1-5.7-.6 0-1.1 4.2-1.1 4.2v1.6c-.5 0-1.2.1-1.4-.1-.6-.3.5 1.2 1.4 1.4v2.1c-.6.3-1.7.7-2.2.5-.9-.4.6 1.9 2.2 1.6v1.5c-.9.1-2.5.3-2.9.2-.7-.2.2 2 1.8 1.4 0 0 .5.7 1.1.9v1.9c-.9 0-2.7.1-4 0-1.8-.2.2 2.3 1.2 1.8 0 0 1 1.4 2-.2 0 0 .3.7.8.8v1.8c-1 .2-3.4.7-4.7-.5-2.1-2-1 2.2 1.2 2.3 0 0 .9 1.4 2 .5 0 0 .8.5 1.5.4v1.7c-.6.5-1.8 1.6-2.6 1.1-1.7-1-3.5-1.7-4.1-1.4-.6.3-.4 2.3 1.1 2.3 0 0 .5 1.9 2.2.7 0 0 1.7 1.4 2.4-.1 0 0 .5.2 1 .2v1.2l-1.4 1.4c-.9 1.1-4.2 1.4-4.7 0s-3.9-.2 0 1.7c0 0 .1 2.3 1.9.6 0 0 1.3 2.2 2.3 0 0 0 1 .8 1.9.6v1.6c-.4.2-.8.7-1.1 1-1.5 1.2-3.7 1.8-4.4.9-.7-.9-2.5-2.3-2.7-.4 0 0-1.5-.4-1.7 1.2-.2 1.6 2.2 1.1 2.2 1.1s.7 1.8 1.9 1.5c1.2-.3 1.2-1.2 1.2-1.2s.4 1 1.5.9c1-.2 1.8-1.5 1.8-1.5l1.3.8v1.6c-.5.3-1.3.9-2.2 1.4l-5.5.6c-1.7-.4-2.4-1.2-2.9-1.9-.7-.9-1.6.5-.4 2.3l-24.2 2.7-17 1.9-152.9 17-16.2 1.8-12.9 1.4c.1-.2.2-.4.2-.6.1-1.2 2.9-2 2.5-3.6-.4-1.6-1.7-1.1-2.5 1.1-.7 2.2-2.9.3-4.2 1.7-1.3 1.4-2.4-1.1-3.6-.5-.6.3-2.8 0-4.9-.2 0-.8 0-1.5-.1-2.1l.6-.3c1.2-.7 1.7.7 3.1.7 1.5.1 1.1-1.5 2.1-1.7 1-.3.1.4 1.7 0 1.6-.4.7-2.1 2.6-1.8 2 .3 1.6-.5 2.8-1.5 1.2-1 1.7-1.9.9-3-.8-1.1-2 .4-3 2s-3 .3-4.2 0-3 1.1-4.9 2.1c-.8.4-1.4.4-1.8.3v-.9l-.1-3.8v-.7c.3.1.8.4 1.3.9 1.9 1.7 1.5-.5 4.2-.5 2.7.1 2-3.6 1.4-3.2s-2.6 1.2-2.9.8c-.3-.4-1.7-2.3-2.5-1.3-.2.3-.8.4-1.5.4l-.1-4.2v-1c1.1.3 2.1 1.8 2.6 1.9.6.2 1.2-1.8 1.6-.5.4 1.3 1.8 1.2 2.6.8.8-.4.8.5 2.2 1.3 1.4.8 2-2.7 2.9-2.2.9.6 2.6.9 3-.9.4-1.8-1.9-2-2.3-1.3-.4.7-1.3.9-1.7-.7-.4-1.6-2.7-.3-3.2 1.1-.5 1.4-1.9 1-2.2 0-.3-1-2.1-1.6-3.7-1.2-.6.1-1.2 0-1.8-.3v-1.1l-.1-3.6v-.5c.5.4 1.1.8 1.6.9 1.1.1.8-.7 1.5-1 .7-.3 1.1 1.5 2 1.5.9-.1 1-2.1 1.7-1.9.7.2 1.8.6 2.3.1.5-.5 1.1 1.4 2.2.4 1.1-1.1-2.9-2.9-1.4-2.7 1.5.2 3.2-2 2.1-2.7-1.1-.7-2.2.9-2.5 1.6-.3.7-.9.3-1.3-.8s-1.6-.5-2.5.6-1.7 1-3.6 1.4c-.8.2-1.6 0-2.2-.4v-3.7c.7.2 1.6.5 2 .2.6-.6.9 1.2 1.8-.3.9-1.6.6 0 2.5-1s.5-1.4-.5-1.7c-1-.2-1 .9-1.3.8-.3-.1-1.2-1.3-2-.9s-1-.1-1.8 1.1c-.2.3-.4.4-.7.5v-.3l-.1-4c.3-.1.5-.3.7-.4.6-.2.9.8 1.9.8.9 0 .8-2.1 2.2-1.3 1.3.8 2.2-.6 2.5-1.1.3-.6.7.7 2 0s.1-1.3 1.3-2.7c1.1-1.4-1-2.2-1.6-1.8s-.6 1.3-2 1.7c-1.5.4-1.8.6-2.6 1.7s-2 .8-3.1.6c-.4-.1-.9-.3-1.2-.5v-3c.1 0 .3 0 .6.2.8.5 1 .7 2.4 0 1.3-.7 1-.8 2.4-.9 1.4-.2.9 0 1.7-.8.8-.8.5-.4 1.4-1.1.9-.6.4-1 .2-1.9-.2-.9-1-.3-1.3.2-.2.5-1.3 1-2.1.8-.8-.2-.8-.5-1.9 0-1.1.5-1.5.9-2.1 1.3-.3.2-.8.1-1.3 0v-2.2c.7.1 1.4.5 1.8-.4.6-1.2 1.8-.1 2.6-1.2.8-1.1 3 .1 3-1.1-.1-1.2-1-.7-1.1-1.1-.1-.4 1.8-1.6 1.1-2.3-.7-.7-1 1-2.5 1.4-1.4.4-.6 1.5-2.1 1.7-1.1.1-2 .8-2.8 1.1l-.1-3.1v-.2h.3c1.9.1.4-.8 2.4-1.1 1.9-.4.4-.9 1.7-1.8 1.3-.9.4-.9 2-1.5 1.6-.5.4-1-.5-1.5-.9-.6-1.1.2-1.7 1.5-.6 1.2-1.7.2-2.8 1.5-.6.7-1.1.9-1.5 1v-1.9s0-.3.1-.8v-.1c.4 0 .8 0 1.2-.7.7-1.5 1.5-.7 1.7-1.7.1-1 1.8-2 .4-2.6 0 0-1.8 2.2-3.1 3v-.6c.1-2.2.2-4.8-.2-5-1-.6-1 1-1 1l-.1 4.5c-1.3-.8-3.1-3-3.1-3-1.3.6.3 1.6.4 2.6.1 1 .9.2 1.7 1.7.3.6.6.7 1 .7v2.7c-.3-.1-.7-.4-1.2-.9-1-1.3-2.2-.2-2.8-1.5-.6-1.2-.9-2-1.7-1.5-.9.6-2.1 1-.5 1.5s.7.6 2 1.5-.2 1.4 1.7 1.8c1.9.4.5 1.2 2.4 1.1v3.2c-.7-.3-1.6-.9-2.6-1-1.5-.2-.7-1.2-2.1-1.7-1.4-.4-1.8-2.1-2.5-1.4-.7.7 1.2 1.9 1.1 2.3-.1.4-1-.1-1.1 1.1-.1 1.2 2.2 0 3 1.1.8 1.1 2 0 2.6 1.2.4.8 1 .6 1.6.4v2.2c-.4.1-.9.2-1.1 0-.6-.4-1-.8-2.1-1.3s-1.1-.2-1.9 0c-.8.2-1.9-.3-2.1-.8-.2-.5-1-1.1-1.3-.2-.2.9-.7 1.3.2 1.9.9.6.6.3 1.4 1.1.8.8.3.6 1.7.8 1.4.2 1 .3 2.4.9 1.3.7 1.5.5 2.4 0 .2-.1.3-.2.4-.2v3.2c-.3.2-.7.3-1 .4-1.1.2-2.3.5-3.1-.6s-1.1-1.3-2.6-1.7c-1.5-.4-1.5-1.3-2-1.7s-2.7.4-1.6 1.8 0 2 1.3 2.7c1.3.7 1.7-.6 2 0 .3.6 1.2 2 2.5 1.1 1.3-.8 1.2 1.3 2.2 1.3s1.3-1 1.9-.8c.2.1.3.2.5.3v.3l-.1 4c-.2-.1-.4-.2-.5-.4-.8-1.1-1-.7-1.8-1.1-.8-.4-1.7.8-2 .9-.3.1-.3-1-1.3-.8-1 .2-2.4.6-.5 1.7s1.5-.5 2.5 1c.9 1.6 1.2-.2 1.8.3.4.3 1.1 0 1.8-.1v3.7c-.6.3-1.3.5-2.1.3-1.9-.4-2.6-.4-3.6-1.4-.9-1.1-2-1.7-2.5-.6-.4 1.1-1 1.5-1.3.8-.3-.7-1.5-2.3-2.5-1.6-1.1.7.6 3 2.1 2.7 1.5-.2-2.5 1.6-1.4 2.7s1.7-.9 2.2-.4c.5.5 1.5.1 2.3-.1.7-.2.8 1.8 1.7 1.9.9.1 1.2-1.8 2-1.5.7.3.4 1.1 1.5 1 .5 0 1-.4 1.5-.8l-.1 4.9v.3c-.6.2-1.2.3-1.7.2-1.6-.4-3.4.2-3.7 1.2-.3 1-1.7 1.4-2.2 0-.5-1.4-2.8-2.7-3.2-1.1-.4 1.6-1.3 1.4-1.7.7-.3-.6-2-.6-2.3.5-.4-.1-.9-.1-1.4 0-.7 0-1.6-.6-2.3-1.2v-2.8c1.2.7 2.5.1 2.5.1 1.2 2.7 2.3.1 2.3.1 5 .6 2.1-3-.8-2.5-1.6.2-3-1-4-2.1v-3.9c1 .3 2.2-.3 2.2-.3 1.6 1.9 2.2-.4 2.2-.4.7 1.2 1.9.5 1.9.5 2.3 1 2.2-4-.9-3.1-2 .6-4.1-.7-5.5-1.7V192c1.1 1 2.3-.3 2.3-.3 1.5 3 3 .6 3 .6.9 1.2 2.3.8 2.8-1 .4-1.8-.8-1.9-3.7-1.2-1.7.4-3.4-1.7-4.5-3.5 0-1.3 0-2.7-.1-4 .8.3 1.6-.3 1.6-.3s-.2 1.8.9 2.4c1.1.6 1.7-1.4 1.7-1.4 1.4 3.6 2.9.6 2.9.6s1 .1 1.2-1.6c.2-1.7-2-1.7-4.6-1.2-1.6.4-3-1.4-3.8-2.8 0-2.3-.1-4.5-.1-6.6.7.6 1.5.3 1.5.3 1 2 2.7.3 2.7.3s1.7 1.5 2.9-.3-1.3-2.2-3.4-1.5c-1.4.4-2.9-1-3.7-2 0-1.5-.1-2.9-.1-4.3 1.7 2.8 2.8-.6 2.8-.6 2.2 2 3.7-3.9 1.5-2.2-1.7 1.3-3.6.3-4.4-.3 0-1.4-.1-2.7-.1-3.9.5.2 1.2.2 1.2.2 1 1.2 1.9 0 1.9 0 2-.2 2.2-2.8.8-1.8-1.1.8-3.2.2-4-.1v-1.4c1.3-.1 2.1-1.9 2.1-1.9 1.2.1 3.1-1.9 2.2-2.4-.8-.5-2.3 1.5-2.3 1.5-1.1-.3-1.9.5-2.1.7-.2-6.6-.4-10.7-.6-10.8-1.1-.3-.3 2.6-.3 6.1v.8c-.3-.2-.7-.3-1-.3 0 0-1.1-2.2-2.1-1.9s.2 2.8 1.5 3c0 0 1 1.1 1.7 1.6v3.2c-.4-.3-1-.5-1.7-.3 0 0-1.5-1.9-2.3-1.5-.8.5 1 2.5 2.2 2.4 0 0 .7 1.5 1.8 1.8v1.5c-.9.3-2.7.7-3.7 0-1.4-.9-1.3 1.6.8 1.8 0 0 1 1.2 1.9 0 0 0 .5 0 1-.1v3.9c-.9.6-2.7 1.5-4.3.2-2.2-1.7-.7 4.2 1.5 2.2 0 0 1.1 3.3 2.8.7v4.2c-.8.9-2.3 2.5-3.7 2-2.1-.6-4.6-.3-3.4 1.5 1.2 1.8 2.9.3 2.9.3s1.7 1.7 2.7-.3c0 0 .9.3 1.6-.4v6.3c-.7 1.3-2.3 3.5-4.1 3.2-2.5-.5-4.7-.5-4.6 1.2.2 1.7 1.2 1.6 1.2 1.6s1.5 3 2.9-.6c0 0 .6 2 1.7 1.4 1.1-.6.9-2.4.9-2.4s1 .7 1.9.1v3.6c-1 1.8-2.9 4.5-4.8 4.1-2.9-.6-4.1-.5-3.7 1.2.4 1.8 1.8 2.2 2.8 1 0 0 1.6 2.4 3-.6 0 0 1.5 1.6 2.7-.2v4c-1.2 1-3.7 2.7-5.9 2-3.1-.9-3.2 4.1-.9 3.1 0 0 1.2.7 1.9-.5 0 0 .7 2.3 2.2.4 0 0 1.7.9 2.7.1v3.5c-.9 1.3-2.7 3.1-4.6 2.8-2.9-.5-5.8 3.1-.8 2.5 0 0 1.1 2.6 2.3-.1 0 0 1.9.7 3.1-.6v2.7c-.8.8-2 1.9-2.9 1.8-1.5-.1-2.6 0-2.6 1.6-.1 1.6 1.3 1.9 2.1 1.2 0 0 .5 1.3 1.6 1.1s.9-1.2.9-1.2.5.3.9.2v4.4c-.7.1-1.8.4-2.2 1 0 0-1-1-1.4.8-.4 1.8 2 1 2 1s.4 1 1.6 1c0 4.5-.1 8.7-.1 12.2l-1 .1c-.9-.7-2.1-.4-2.1-.4-.2-1.6-4.5-.4-5.6-2-.5-.7-.9-1.2-1.3-1.5v-3.3c1.1.3 2.2-.6 2.2-.6.2 1.7 2.2 1.4 2.2 1.4 1 1.6 4.5 0 4.2-1-.3-1-3.8-1.4-3.8-1.4-.8-2-3.5-1.3-3.5-1.3-.3-.5-.8-.6-1.3-.6v-4.7c1.1.3 1.8-.5 1.8-.5s3.5 1.1 2.6-.6c-.9-1.7-3-.8-3-.8-.2-.6-.8-.8-1.3-.8v-3.8c1.9 0 4.1 1.1 3.5-.2-.7-1.5-2.7-1.3-2.7-1.3-.2-.4-.5-.6-.9-.6v-2.4c1.3-.2 2.3-1.2 1.1-1-.4.1-.8.1-1.1.1 0-4.4.1-7.2.1-7.2l-1.3 1.1s0 2.3-.1 6c-.4.1-.9.1-1.6 0-1.3-.3.1 1 1.6 1v2.4c-.4-.1-1 0-1.3.6 0 0-2-.1-2.7 1.3-.6 1.3 2 .1 3.9.2 0 1.2 0 2.4-.1 3.7-.6 0-1.4.2-1.6.9 0 0-2.1-.9-3 .8-.9 1.7 2.6.6 2.6.6s.8 1 2 .4c0 1.6-.1 3.2-.1 4.8-.5 0-1 .2-1.3.6 0 0-2.7-.7-3.5 1.3 0 0-3.5.4-3.8 1.4-.3 1 3.3 2.7 4.2 1 0 0 2 .2 2.2-1.4 0 0 1.1.8 2.1.6 0 1 0 2-.1 3.1-.4.4-1 .9-1.6 1.8-1 1.6-5.4.4-5.6 2 0 0-2.1-.6-2.8 1.4-.6 2 3.2.4 3.2.4l.5.5-9.9 1.1v128.5l42.9-4.5v42.2l-44.3 4.9 16.2 60.1-16.3 68.4 48.2-5.1c13.6 53.8 62.6 93.9 120.5 93.9h28.5c67.8 0 123.4-55.1 124.2-122.7l48.6-5.1V371l-48.6 5.4v-40.7l49.2-5.2zm-54-132.3c.5 1 2.2-.7 2.2-.7s1.5 1 2-.2c0 0 .8.5 1.4.4v1.5c-.9.6-2.6 1.5-5.4 1.3-2.7-.2-4.1-1-4.9-1.7v-1.3c.8.2 1.6.1 2.1-.6 0 0 2.1.4 3-1-.1.3-.9 1.4-.4 2.3zm-2.5 4.1h-2.2v-1.8c.1.1.3.1.5.1-.1.1.5 1.7 1.7 1.7zm-2.1 3.9v-2.7c.5.4 2 1.5 3.1-.2 0 0 1.7.1 2.4-.7 0 0-.1.8-.9 1s-1.1 1.5-1.1 1.9 1.7.6 2.6-.8c0 0 1.6-.4 2-1.7 0 0 1 .8 2 .8v.9c-.9.3-2.1.6-2.7.3 0 0 0 .2.1.4l-7.1.8c-.2.1-.3 0-.4 0zm24.8-3.2c-.4.5-4.2.4-4.2.4 1.3-.1 1.8-1.7 1.8-1.7.6-.1 1-.4 1.3-.7.3.7 1.2.8 1.7.3 0 0 .4 1.1 1.4 1 1-.2.8-1 .8-1s.4.2.8.2v1.8l-3.5.4c.2-.5.1-.9-.1-.7zm-10.9-4.7c.4 1.3 2 .2 2 .2s1.7 1.7 2.2.7c.5-.9-.3-2-.4-2.2.9 1.4 3 1 3 1 1.5 2.1 5.8-1.3 4.1-1.1-1.7.2-3.6-1.3-3.6-1.3.9.1 1.6.1 2.2-.1h.3s1 2.3 2-.1c0 0 1.6.7 2.7-.6v2.4c-.7.7-1.7 1.6-2.5 1.6-.9 0-1.6 0-2 .4-.6-.2-1.4 2-5.9 2.3-4 .2-5.7-1.5-6.1-1.9v-1.3c.4 1 2 0 2 0zm-9.9-41.6c1.7 3.3 5.1-.1 5.1-.1.6.5 1.2.8 1.8.9v1c-.5.1-1.2.1-1.2-.1-.1-.3-1-1.2-1.6-.8-.7.4 1 1.4 1 1.4s.5.9 1.2 1.1c.2.1.5.1.7.1v1.3c-.4 0-.8-.1-.8-.4-.1-.5-1.2-.8-1.4-.2-.2.6.4 1.2 1.2 1.4.4.1.7.2 1 .3v1.2c-.3.1-.8.1-1.1-.1-.6-.4-1.2-.8-1.5-1.2-.3-.5-1.2-.5-1.5.3-.3.7.7 1.8 1.5 1.4 0 0 .5 1.1 1.4.6.5-.3.8-.2 1.1-.1v2.4c-.3 0-.6 0-.7-.3a.89.89 0 0 0-1.5 0c-.3.6.6 1.3 1 1.1 0 0 .6.6 1.1.6v2.1c-.5.1-1.2.2-1.4-.1-.3-.6-2.1-1.3-2.5-2s-.7 1.5.8 2.2c0 0 .3 2.6 2.2 1.3 0 0 .4.2.8.2 0 1 0 1.9-.1 2.9-.7.2-1.9.5-2.3.1-.5-.6-2.5-1.2-3.6-1.7s-1.2 2.6 1.5 2c0 0-1.3.8-1.2 1.4.2 1 2.2.2 2.2.2s1.2 1.3 1.5-.1c0 0 1 .3 1.7.2 0 .9 0 1.8-.1 2.7-.6.3-1.6.6-2.1.3-.8-.5-2.8-1.4-4.1-1.1-1.3.3-.5 2.5 1.8 2.1 0 0 1.4 2.1 2.8.5 0 0 .8.6 1.6.5 0 .8 0 1.7-.1 2.6-.8 0-1.9-.1-2.5-.6-1-.7-1.4-.3-.9.8.6 1.1 2 .9 2 .9s.7.8 1.4.8v1.1c-.9.1-2.5 0-3.8-.5-2.1-.8-3.3-1.5-3.6-2.1-.3-.5-.8 2 .8 2.6 0 0 .9.9 1.8.6-.6.2-2.6.8-3.8.3-1.5-.6-.2 2.5 2.3 1.5 0 0 1.3.7 2-.6 0 0 1.6 1.2 2.5.5 0 0 1 .5 1.9.3v1c-1.1.3-3.4.7-4.2.3-1.1-.6 1 2.6 2.4 1.6 0 0 1 .5 1.8.4v1c-1.2 0-3.8-.2-4.8-1-.9-.7-3.7-.9-5.6-1.4l-.3-27.4c1.1.1 1.7-1.4 1.7-1.4s2.6 1.5 4.8-.9c2.1-2.4-.1-2.8-3.2-1.5-1.4.6-2.6.3-3.3-.3v-4.3c1.8 1.2 4.4.2 4.4.2zm-16.1 50.4v-2.4c.4-.2.7-.4.7-.4s.7 1.3 1.8 1.5c1 .2 1.5-.9 1.5-.9s0 .8 1.2 1.2c1.2.3 1.9-1.5 1.9-1.5s.9.2 1.6 0v1h-.1c-.9.2-.5.7-.1 1.1l-.6.1c-1.1-.3-2.9-.5-3.8.4l-3.3.4c-.3-.1-.6-.3-.8-.5zM511 223.4c.7-.2.9-.9.9-.9s2.4.8 2-1-1.4-.8-1.4-.8c-.3-.4-.9-.7-1.5-.9v-4.6c.2-.1.3-.1.3-.1s-.3 1 .9 1.2c1.2.2 1.6-1.1 1.6-1.1.6.6 1.8.5 2-.7.6.1 1.3-.1 1.8-.4.9-.6 1.5 2.9 2.9 2.2 1.4-.8 1.4-1.7 2.2-1.3.8.4 2.2.6 2.6-.8.4-1.3 1 .7 1.6.5.4-.2 1.4-1.5 2.5-1.9l-.1 5.2c-.7 0-1.2-.1-1.4-.4-.7-.9-2.1.9-2.5 1.3-.3.4-2.4-.4-2.9-.8s-1.3 3.3 1.4 3.2c2.7-.1 2.3 2.2 4.2.5.5-.5.9-.7 1.2-.9l-.1 5v.3c-.4.2-1 .1-1.8-.3-2-1.1-3.7-2.4-4.9-2.1s-3.2 1.6-4.2 0-2.2-3.1-3-2c-.8 1.1-.3 2 .9 3s.8 1.8 2.8 1.5 1 1.4 2.6 1.8c1.6.4.7-.3 1.7 0s.7 1.8 2.1 1.7c1.5-.1 2-1.4 3.1-.7l.6.3v2.2c-2.1.2-4.3.6-4.9.2-1.2-.6-2.3 1.9-3.6.5-1.3-1.4-3.4.5-4.2-1.7-.7-2.2-2-2.7-2.5-1.1-.4 1.6 2.4 2.4 2.5 3.6.1 1.2 1.1 1.3 2.1 1.2 1-.1 2 .1 2.8.7.6.5-1.4.8-1.5 1.5l-8.7 1c0-3.8 0-8.6-.1-14.1zm246.6 362.4c-21.6 21.6-50.3 33.6-80.7 33.6h-28.5c-30.4 0-59-11.9-80.7-33.6a114.14 114.14 0 0 1-29.8-51.4l253.2-26.6c-.7 29.4-12.5 57-33.5 78zm82.1-203.6v110.4l-38.6 4.1-10 1.1-255.3 26.9-9.9 1-33.1 3.5 13.6-57.2-13.8-51.3 31.6-3.5 10-1.1 257-28.5 10-1.1 38.5-4.3zM534.1 406v-42.2l257-27v40.7l-257 28.5zm257-79.3l-257 27-10 1.1-32.9 3.5V249.8l2.7-.3.8-.1 11.5-1.3 2.4-.3 2.4-.3 17.8-2 3.6-.4 15.6-1.7 14-1.6L740.8 222l14.5-1.6 23-2.6 2-.2.9-.1 2.4-.3h.3l.5-.1 2.9-.3.8-.1h.1l2.7-.3 2-.2 3.5-.4 5.4-.6 2.2-.2 1.8-.2 1.7-.2 12.9-1.4 1.8-.2 15.7-1.7-13.5 54.2 13.9 56.2-37.3 3.9-9.9 1.1z"/></svg>