<svg xmlns="http://www.w3.org/2000/svg" viewBox="0 0 1096 780"><path d="M627 377.7c-3.5 0-7 .6-10.5 1.8l-.7.2-11.5-20.9v-9.1h13.8c2.6 0 4.8-2.2 4.8-4.8 0-2.6-2.2-4.8-4.8-4.8h-18.3c-2.6 0-4.8 2.2-4.8 4.8 0 .4.1.8.2 1.2v9.3h-41.9l-3.5-7.7h10c2.5 0 4.5-2 4.5-4.5s-2-4.6-4.5-4.6h-34c-2.5 0-4.6 2-4.6 4.6 0 2.5 2 4.5 4.6 4.5h14.1l3 6.9-13.7 25.1-.7-.3c-3.4-1.2-6.9-1.8-10.5-1.8-17.5 0-31.8 14.3-31.8 31.8s14.3 31.8 31.8 31.8c15.5 0 28.7-11.1 31.3-26.5l.1-.7H563l.3.2c2.1 2 4.8 3 7.6 3 6.1 0 11.1-5 11.1-11.1 0-1.1-.2-2.1-.4-3.1l-.1-.4 18.3-33.3 8.1 14.7-.6.5c-7.7 6.1-12 15.1-12 24.9 0 17.5 14.3 31.8 31.8 31.8s31.8-14.3 31.8-31.8c-.1-17.4-14.4-31.7-31.9-31.7zm-94.2 14.5l.8.8c3.1 2.9 5.3 6.7 6.4 10.8l.3 1.1h-14.5l7-12.7zm7.2 23c-2.6 10-11.6 17-21.9 17-12.5 0-22.7-10.2-22.7-22.7s10.2-22.7 22.7-22.7c1.8 0 3.7.2 5.6.7l1.1.3-10.7 19.5c0 .1-.1.1-.1.2-.1.2-.1.3-.2.4-.1.2-.1.3-.1.4 0 .1-.1.3-.1.4v.9c0 .2 0 .4.1.5 0 .1 0 .3.1.4 0 .1.1.3.1.4.1.2.1.3.2.4.1.1.1.2.2.4.1.1.1.2.2.3.1.1.2.2.3.4l.3.3.3.3c.1.1.2.2.4.3h.1l.1.1c.1 0 .1.1.2.1.1.1.3.1.4.2.2.1.3.1.5.1.1 0 .2.1.4.1s.3 0 .5.1h22.4l-.4 1.2zm22.4-16c-1.2 1.4-2 3.2-2.4 5l-.1.7h-10.4l-.1-.7c-1.3-7.7-5.4-14.7-11.6-19.6l-.6-.5 10.4-19 15.1 33.6-.3.5zm12.4-3.3l-.7-.2c-.8-.2-1.6-.4-2.5-.5h-.5l-13.7-30.6h34.7l-17.3 31.3zm52.2 36.3c-12.5 0-22.7-10.2-22.7-22.7 0-6.3 2.5-12.1 7.1-16.5l.8-.8 10.7 19.5c.8 1.5 2.3 2.4 4 2.4.8 0 1.5-.2 2.2-.6 1.1-.6 1.8-1.6 2.2-2.7.3-1.2.2-2.4-.4-3.5l-10.7-19.5 1.1-.3c1.9-.5 3.8-.7 5.6-.7 12.5 0 22.7 10.2 22.7 22.7.1 12.5-10.1 22.7-22.6 22.7zm0 0" fill="#169747"/></svg>