<svg xmlns="http://www.w3.org/2000/svg" viewBox="478 290 185 185">
  <path d="M492.3 348.8h154.3c4 1.4 4.1 4.1 6.1 6.1l.3 60.2-13.3.3c-1.5-13.8-9.4-19.3-20.4-21-13.9.5-20.5 8.1-22.3 20.7l-56 .3c-.6-14.8-8.9-20.1-20.7-21-10.8.7-19.5 5.9-21.7 20.4l-14.2.6.7-60.5c1.2-3.7 3.6-5.8 7.2-6.1zm125.9 50.6c-8.8 0-15.9 7.2-15.9 15.9 0 8.8 7.1 15.9 15.9 15.9s15.9-7.2 15.9-15.9c0-8.8-7.1-15.9-15.9-15.9zm-97.9 0c-8.8 0-15.9 7.2-15.9 15.9 0 8.8 7.1 15.9 15.9 15.9s15.9-7.2 15.9-15.9c0-8.8-7.1-15.9-15.9-15.9zm-25.5-42.3c-1.3.2-2 1-2.5 2.2v22.1h33.1v-24.3h-30.6zm117.8 0v24.3h34v-21.5c-.5-1.4-1.2-2.4-2.6-2.8h-31.4zm-40.1 0v24.3h34v-24.3h-34zm-40.6 0v24.3h34v-24.3h-34z" fill-rule="evenodd" clip-rule="evenodd" fill="#169747"/>
</svg>
