<svg id="Layer_1" xmlns="http://www.w3.org/2000/svg" viewBox="458 290 185 185">
  <style>
    .st0{fill-rule:evenodd;clip-rule:evenodd;fill:#169747}
  </style>
  <path class="st0" d="M569.4 339.9l20.5.3c6.4 2.1 9.9 4.1 11.9 10.2l8.9 27.6c3.6 2.6 7.1 7.6 7.8 14.5v23.9c0 1.1-1.6 2.5-3 3.2h-5.4l.1 16.6c-.2 1.9-1.3 3.1-3 3.9h-13c-1.7-.7-2.5-1.7-2.7-3.1l.2-17.8-87-.6-.2 18.3c-.4 1.3-1.2 2-2.4 2.1l-15.3-.4c-.9-.4-1.2-1.1-1.3-1.8l-.1-17.9-7.7-.1v-26.6c-.1-9.4 4.7-12.4 8.3-14.5 4.1-8.2 5.7-20.9 9.4-30.1 3-4.1 4.2-5.9 11-7.9l20-.1 43 .3zm33.6 46.4c-4 0-7.3 3.3-7.3 7.3s3.3 7.3 7.3 7.3 7.3-3.3 7.3-7.3-3.3-7.3-7.3-7.3zm-95.7-37.5c-1.4 0-2.2.6-2.9 1.5l-7.2 22.1 101.9.5-6.6-21.7c-.9-1.3-2-2.2-3.7-2.4h-81.5zm-14.3 37c-4 0-7.3 3.3-7.3 7.3s3.3 7.3 7.3 7.3 7.3-3.3 7.3-7.3-3.3-7.3-7.3-7.3z"/>
  <circle class="st0" cx="514.3" cy="358.3" r="7.8"/>
  <path class="st0" d="M524.1 376.9v-1.4c0-5.2-4.3-9.5-9.5-9.5s-9.5 4.3-9.5 9.5v1.4h19z"/>
  <circle class="st0" cx="537" cy="358.3" r="7.8"/>
  <path class="st0" d="M546.8 376.9v-1.4c0-5.2-4.3-9.5-9.5-9.5s-9.5 4.3-9.5 9.5v1.4h19z"/>
  <circle class="st0" cx="559.6" cy="358.3" r="7.8"/>
  <path class="st0" d="M569.5 376.9v-1.4c0-5.2-4.3-9.5-9.5-9.5s-9.5 4.3-9.5 9.5v1.4h19z"/>
  <circle class="st0" cx="582.3" cy="358.3" r="7.8"/>
  <path class="st0" d="M592.1 376.9v-1.4c0-5.2-4.3-9.5-9.5-9.5s-9.5 4.3-9.5 9.5v1.4h19z"/>
</svg>
